<?xml version="1.0" encoding="UTF-8"?>
<!DOCTYPE svg PUBLIC "-//W3C//DTD SVG 1.1//EN" "http://www.w3.org/Graphics/SVG/1.1/DTD/svg11.dtd">
<!-- Creator: CorelDRAW 2019 (64-Bit) -->
<svg xmlns="http://www.w3.org/2000/svg" xml:space="preserve" width="292.058mm" height="20.7653mm" version="1.1" style="shape-rendering:geometricPrecision; text-rendering:geometricPrecision; image-rendering:optimizeQuality; fill-rule:evenodd; clip-rule:evenodd"
viewBox="0 0 29752.05 2115.37"
 xmlns:xlink="http://www.w3.org/1999/xlink">
 <defs>
  <style type="text/css">
   <![CDATA[
    .fil0 {fill:#BB6B86}
   ]]>
  </style>
 </defs>
 <g id="Layer_x0020_1">
  <metadata id="CorelCorpID_0Corel-Layer"/>
  <g id="_2970619571328">
   <path class="fil0" d="M13790.69 932.53c-176.79,-83.49 -548.59,-385.41 -563.69,-534.92 24.08,-11.23 1.94,-10.28 48.08,-12.06 75.51,-2.91 188.45,58.69 253.83,90.18 182.14,87.73 846.44,640.2 475.6,537l-73.41 -24.18c-40.88,-16.54 -89.26,-31.84 -140.42,-56.01zm-950.65 -569.83c-0.15,-2.05 0.61,-3.44 1.25,-12.66l190.86 1.3c-13.43,27.5 -43.51,-39.79 8.68,52.6l132.45 175.82c302.06,437.08 636.92,448.39 708.56,541.06 -93.07,55.08 -279.43,-23.19 -369.05,-85.51 -117.67,-81.84 -153.43,-120.47 -249.67,-211.98 -68.71,-65.33 -417.67,-389.6 -423.09,-460.63zm-1058.27 267.49c380.41,78.09 245.74,-71.66 339.44,-248.51 65.91,-124.41 181.9,-211.28 361.63,-227.59 11.08,12.57 29.43,26.62 43.46,46.26 36.4,50.94 4.91,-16.51 36.96,73.73 -236.5,15.53 -335.52,135.14 -388.27,310.43 -21.97,73.03 -7.21,189.6 69.84,269.08 78.86,81.33 144.73,46.22 281.85,46.73 33.3,-80.3 108.71,-143.62 43.34,-259.01 -70.55,-124.52 -137.15,-44.88 -252.52,-113.87 45.42,-92.47 86.72,-87.66 177.43,-124.41 299.96,-121.55 322.81,227.79 738.98,538.47 121.92,91.01 142.31,134.57 322.63,201.3l-322.8 22.37c-160.12,-8.76 -200.91,-46.26 -308.19,-60.99 -122.78,-16.87 -170.63,3.13 -367.12,-65.52 -315.03,-110.07 -378.75,-111.9 -702.73,-259.42l-466.08 -229.81c36.41,-67.5 76.9,-96.19 163.06,-137.66 71.58,-34.46 127.44,-88.98 187.46,-91.4 -5.71,57.83 -76.83,165.24 41.61,309.83zm-5737.54 512.6c72.37,35.29 159.1,21.59 263.19,22.07 231.98,1.09 153.92,14.1 413.37,-158.04 74.54,-49.46 92.76,-82.22 155.17,-127.75 30.35,-67.96 58.46,-69.4 106.11,-137.1 28.48,-40.48 54.6,-88.82 80.9,-137.45l203.16 60.16 15.88 280.32c-11.33,97.38 51.37,212.03 89.31,298.59l74.22 145.56c2.37,4.25 5.58,9.75 7.91,14.06 2.35,4.35 5.26,10.03 7.56,14.42 91.12,173.13 345.87,412.73 494.61,449.51 132.26,59.44 111.35,9.31 241.74,-13.3l0 -161.63c-114.44,0 -202.43,12.14 -286.17,-21.98l-21.5 72.76c-361.05,-99.18 -591.07,-733.19 -546.58,-1089.29l158.57 21.62c34.93,76.41 20.26,95.01 39.76,176.87 13.36,56.06 45.87,113.49 64.46,154.93 136.39,304.03 146.57,276.11 261.83,290.67 61.09,-43.11 119.34,-155.74 153.83,-220.93 80.35,1.79 97.16,17.18 175.81,29.24 383.44,-7.98 -30.88,-453.08 -57.84,-572.66 100.32,31.52 34.72,-7.18 103.01,64.5 204.62,214.72 103.79,133.06 369.87,304.56 46.53,29.98 36.96,16.78 61.04,64.48 69.71,0 48.41,-2.48 101.15,15.08l631.32 138.94c169.22,58.45 439.83,-35.14 609.53,-94.09l112.38 -41.46c241.02,-109.41 199.91,-100.45 405.48,-216.26l235.35 -279.4c67.59,17.6 112.29,48.77 171.42,91.94 43.9,32.04 28.49,26.74 73.32,53.17 40.28,23.74 43.43,19.83 81.84,46.21 -15.9,91.56 -38.16,173.68 -106.81,205.26 0,67.82 -5.48,139.96 8.11,204.24 0.2,1.03 21.59,77.15 24.42,84.05 27.84,68.04 5.22,38.48 55.27,78.02 0,-232.09 -8.7,-225.82 67.61,-354.06 2.7,-4.53 5.71,-10.48 8.33,-15.17 91.1,-162.27 100.51,-127.97 213.97,-67.29 4.3,2.3 10.23,5.02 14.44,7.38 4.06,2.27 9.65,5.42 13.59,7.74l397.55 197.19c189.13,95.42 155.28,45.85 276.88,97.94l294.47 126.27 417.24 98.13c5.35,1.79 10.92,3.91 16.49,5.48l113.01 19.21c186.89,31.57 348.4,31.01 605.95,31.01 140.65,0 360.68,20.44 483.97,-21.49l135.19 -40.63c298.81,-113.68 248.68,-118.83 472.27,-223.57 42.99,-27.92 75.69,-50.96 111.57,-95.01 142,-174.36 217.86,-575.81 -127.96,-682.81 -149.96,-46.39 -248.12,38.69 -327.72,74.67 0,144 -26.11,268.08 71.83,326.34 67.16,39.96 213.24,45.34 301.67,-9.59 32.06,115.5 -183.72,211.5 -285.71,257.22 -149.73,-318.74 -503.14,-603.2 -806.57,-738.79 -136.72,-61.08 -213.95,-95.28 -360.65,-142.9l2.34 -87.98 -904.89 0c-93.9,39.51 -193,15.84 -307.54,55.31l-265.09 111.28c-47.45,17.95 -34.76,8.94 -79.05,34.21l-79.06 48.97c-4.31,2.34 -10.19,5.04 -14.57,7.42l-166.65 121.65c-58.42,41 -47.22,34.56 -95.03,74.61 -91.42,-14.92 -151.98,-58.26 -218.46,-105.09 -70.26,-49.5 -123.56,-72.74 -176.46,-122.14 12.27,-83.92 33.65,-106.52 47.32,-226.21l-741.64 0c67.25,68.93 205.99,164.2 254.25,241.75 -213.35,285.09 -599.78,378.68 -967.11,371.02 -280.25,-5.84 -345.55,-34.74 -557.37,-127.1 -119.24,-51.98 -319.81,-170.83 -367.26,-265.89 58.54,-55.65 121.38,-132.52 144.93,-219.77l-122.75 0c-38.99,55.86 -71.04,103.04 -130.46,118.31 -42.03,-34.45 -55.66,-69.94 -88.53,-118.31l-649.91 0c2.11,143.23 74.29,418.29 59.16,487.46 -58.22,-45.73 -49.94,-141.16 -87.25,-240.9 -44.97,-120.17 -22.86,-76.93 -26.07,-246.56l-127.17 0c-69.48,213.46 -28.68,301.07 -48.08,531.75 -167.32,7.49 -159.78,-87.17 -120.2,-231.18 25.09,-91.29 59.4,-200.26 81.39,-300.57l-48.34 0c-19.47,89.19 -101.86,244.93 -116.46,500.77 -57.37,2.27 -95.07,-12.87 -133.16,-31.18 -4.54,-88.04 84.12,-358.41 95.79,-469.59l-194.64 0c22.17,82.01 40.89,111.11 15.71,195.05 -55.77,185.85 -20.62,232.14 -101.38,192.07l-134.3 -125.4c-55.26,-70.85 -94.76,-124.7 -97.07,-261.71 -67.94,-18.36 -51.69,-21.87 -142.34,-21.97l-4.39 0c9.14,261.29 165.28,476.46 353.89,549.42 -5.33,145.99 -275.33,501.21 -684.57,507.5 -455.95,7.01 -595.63,-394.89 -439.28,-623.44 128.19,111.6 36.12,140.17 297.11,121.03 140.37,-62.03 151.85,-391.3 -214.86,-320.6 -302.27,58.27 -333.8,478.97 -151.18,691.54 174.06,202.59 211.56,151.71 311.27,217.34z"/>
   <path class="fil0" d="M15844.04 1015.06c51.03,-249.77 590.97,-645.02 885.49,-653.8 -35.3,326.8 -639.07,641.49 -885.49,653.8zm193.8 105.87c38.56,-15.82 88.25,-58.54 136.64,-78.01 506.21,-203.63 728.88,-686.1 770.86,-708.38 67.66,-35.9 175.89,2.71 184.78,9.56l-452.73 466.35c-115.29,100.44 -349.61,367.25 -639.55,310.48zm1329.09 -398.39c11.24,176.14 245.9,193.57 343.04,110.43 136.83,-117.13 120.73,-392.16 -145.34,-534.85 -63.83,-34.23 -134.03,-45.1 -181.06,-77.44 48.03,-21.5 123.75,-224.54 391.64,47.24 135.06,137.01 74.97,154.03 97.26,240.02 26.14,100.9 3.25,79.26 121.24,88.14 42.46,3.19 133.75,-2.8 181.03,-2.8 134.22,-296.94 30.22,-170.6 35.97,-315.57 34.97,5.8 302.86,138.3 357.83,249.05 -314.84,185.16 -554.81,251.53 -846.35,382.86l-384.78 123.61c-406.35,71.36 -502.1,129.04 -949.48,117.67l647.82 -531.66c60.23,-65.69 205.97,-273.21 299.8,-276.72 60.32,-2.26 205.58,61.55 260.31,102.83 22.82,17.23 22.85,16.21 35.21,31.35 31.18,38.19 28.06,44.32 36.23,90.14 -128.9,-75.6 -312.39,-33.15 -300.35,155.72zm-367.93 -546.72c44.19,-61.12 233.27,-66.78 318.86,-47.53 -112.62,132.13 -112.53,95.93 -239.06,77.28 -68.72,-10.14 -39.47,12.55 -79.81,-29.75zm-1649.41 956.14l19 10.83c224.48,84.21 196.62,160.13 692.88,245.36 189.24,32.5 657.44,-5.31 869.4,-38.86 648.82,-102.74 483.34,-105.31 1084.72,-299.81l363.66 -126.45c24.53,-58.92 -5.84,-17.2 77.65,-65.3 121.39,-69.95 187.32,-130.85 284.94,-127.36 171.74,203.45 284.63,624.79 -184.31,831.37 -66.97,29.5 -241.36,15.93 -316.86,-23.37 82.88,-45.67 99.26,6.14 138.99,-114.37 27.62,-83.79 1.14,-152.17 -61.98,-188.03 -111.13,-63.13 -290.93,-58.05 -296.55,214.5l153.72 219.76c1024.02,0 633.8,-275.61 791.17,-791.05 -51.54,-20.88 -101.08,-186.91 -109.99,-241.86 76.33,-44.76 272.08,-151.49 307.78,-201.57 100.74,57.2 108.28,152.91 201.58,201.57 55.63,24.25 43.35,15.69 98,53.38 167.77,115.73 274.15,193.53 472.46,273.43l219.73 87.94c147.73,23.76 385.55,18.47 538.2,-5.58 202.93,-31.99 293.59,-101.49 510.51,-101.49 63.25,-118.58 379.57,-168.3 580.08,-497.27l38.74 35.76c-52.78,62.72 -172.28,212.23 -180.98,329.66 12.29,137.56 40.41,116.45 49.01,219.75l307.68 -131.85c15.44,185.67 93.9,220 182.15,329.64 31.7,-59.89 -1.42,0.47 29.07,-48.37 249.18,-399.09 158.73,-425.89 247.48,-593.07l149.94 -13.42c42.37,200.95 -10.29,260.7 -43.59,413.11 31.37,-29.09 10.22,1.8 42.61,-51.33 17.56,-28.8 18.03,-36.29 27.93,-60.78 21.44,-53.02 33.7,-76.52 43.07,-129.64l33.13 -169.96 167.26 -53.32c67.66,67.37 89.16,129.66 152.62,202.37 57.51,65.88 110.52,108.52 158.91,174.76l130.59 85.38c4.4,2.4 9.9,5.47 14.38,7.81 4.52,2.35 9.95,5.47 14.58,7.75 145.62,71.59 138.23,12.47 258.79,-13.04 -155.96,-89.31 -108.38,8.02 -350.23,-179.46 -103.65,-80.35 -183.2,-155.06 -224.99,-304.02 4.42,-5.38 10.01,-11.97 13.42,-15.99 3.29,-3.9 8.97,-10.93 12.91,-15.58l166.38 -170.89c73.16,-72.92 87.46,-127.15 128.16,-237.08l-132.05 0c-28.02,138.32 -126.34,262.47 -273.96,269.18l-67.09 -269.18 -121.41 0c13.78,138.22 68.49,236.83 62.42,361.06l-129.79 24.97 -72.28 -386.03 -60.33 0c6.2,111.1 53.79,163.49 58.73,264.78 7.12,146.15 -0.66,161.27 -135.41,151.78l-13.69 -416.56 -410.55 0c-31.15,78.92 -30.38,94.71 -74.21,162.16 -43.4,66.77 -24.43,100.73 -105.19,114.73 9.86,-115.89 53.26,-86.78 97.84,-276.88 -239.76,0 -407.03,-21.97 -656.99,-21.97 62.68,108.72 69.08,30.73 92.9,166.55 -244.22,203.86 -485.76,363.67 -951.86,368.44 -302.87,3.12 -350.24,-1.28 -568.31,-90.82 -86.27,-35.43 -52.98,-18.48 -122.15,-56.55 -189.91,-104.48 -229.48,-118.64 -254.46,-255.65 50.94,-29.05 126.91,-95.04 164.07,-131.97l-625.59 0c6.11,75.58 22.33,95.04 23.94,175.81 -86.15,27.81 -250.82,177.96 -375.69,224.77 -65.56,-20.86 -106.31,-85.1 -164.88,-127.39 -67.56,-48.8 -108.33,-66.48 -182.27,-104.18 -209.29,-106.73 -271.94,-113.64 -386.95,-169l-1193.99 0 -8.88 60.15c-111.41,13.05 -268.37,93.06 -383.02,145.73 -212.21,97.48 -218.62,150.34 -311.56,210.94 -74.41,48.54 -98.46,29.59 -165.56,106.21 -35.6,40.65 -25.74,39.22 -56.66,76.24 -157.09,188.15 -190.03,311.1 -266.93,345.84l-92.75 -44.55c-27.01,-16.88 -40.87,-32.81 -67.37,-59.12 -53.92,-53.55 -96.85,-70.4 -118.34,-156.82 259.65,122.41 471.97,-17.14 386.59,-305.03 -142.61,-211.55 -481.82,-83.53 -549.58,110.19 -95.35,272.58 76.89,484.98 209.46,598.21z"/>
   <path class="fil0" d="M2175.7 880.16c54.94,80.82 52.47,169.63 8.12,271.85 -82.85,190.88 -414.22,420.21 -597.11,521.2 -178.51,98.57 -374.01,137.1 -619.71,140.44 -131.56,1.78 -438.56,2.83 -538.03,-109.6 -72.65,-82.13 -16.51,0.09 -49.31,-93.47 492.95,-14.64 257.49,-225.21 313.96,-371.03 726.72,-134.43 737.38,-366.04 977.03,-797.1l608.8 226.13c510.61,191.72 1025.63,48.31 373.68,490.57l-332.1 217.53c-81.92,54.55 -193.75,114.64 -292.05,132.33 33.55,-93.99 -0.44,-39.42 72.15,-113.4 350.24,-356.87 179.18,-652.02 -6.02,-715.84 -165.1,-56.9 -396.67,74.73 -311.69,237.88 64.82,124.44 237.84,208.81 383.79,-24.15 1.72,-2.75 5.06,-9.33 8.49,-13.32zm-895.54 -880.16l472.92 0c-13.85,185.04 -68.23,210.7 72.12,304.84 212.59,142.59 713.38,335.45 965.56,359.87 353.29,34.21 386.27,116.36 711.49,-282.2 2.89,-3.55 6.82,-8.74 9.62,-12.39l302.91 -370.11 300.03 0c86.56,92.84 306.26,191.79 506.86,179.74l-9.91 -112.87 -300.8 -66.87 1391.83 0c-4.71,3.82 -11.88,3.36 -14.6,10.84 -22.12,60.99 -755.88,57.66 -803.65,104.56 -35.37,56.17 20.76,75.67 24.77,201.01 -465.22,195.38 -729.21,-113.43 -933.21,-159.35l-462.97 549.74c194.44,11.1 535.52,-21.92 725.67,-58.19 355.53,-67.8 728.7,-189.9 1057.66,-327.93l274.78 -118.99c102.03,-51.27 307.21,-138.98 363.67,-201.69l240.47 0 -378.97 220.43c-39.54,20.12 -71.36,38.09 -113.23,59.51 -330.47,169.07 -728.66,305.99 -1079,417.87 -180.42,57.62 -562.34,104.68 -573.31,159.28 -183.33,0 -218.73,20.19 -362.42,42.31 -280.7,43.19 -529.31,217.29 -754.39,366.4 -487.38,322.9 -428.51,310.51 -939.68,576.72 -92.94,48.41 -172.19,86.31 -259.44,136.15 -46.25,26.43 -72.43,48.66 -114.4,83.51 -119.59,99.3 -113.58,30.01 -303.49,25.19 -61.87,-1.56 -107.59,2.89 -169.9,-5.3 -305.95,-40.18 -336.98,-39.33 -637.87,-131.93 -336.45,-103.55 -148.54,-17.11 -358.1,-389.11 -92.29,-163.84 -122.57,-139.04 -131.18,-242.42 134.52,-64.54 302.66,-21.65 417.57,-153.83 -29.9,-111.94 -74.85,-76.03 -131.87,-153.83 24.67,-92.39 65.24,-76.32 117.14,-168.6 44.73,-79.52 32.56,-117.25 124.61,-143.31 102.83,67.39 44.35,-58.31 251.16,114.12 7.13,120.62 -23.37,185.03 -123.69,213.07 -24.56,6.87 -32.17,5.33 -57.44,11.63l-56.25 17.03c87.59,200.32 530.94,57.43 678.38,-99.12 3.21,-3.41 7.51,-8.3 10.6,-11.82 4.3,-4.86 15.84,-19.54 19.91,-24.56 122.54,-151.56 281.7,-316.23 295.03,-532.83 -41.17,21.85 -455.03,498.18 -807.38,279.63l-59.74 -68c-2.23,-4.25 -5.16,-10.46 -7.11,-14.76 -30.4,-67.2 -24.36,-55.9 -11.6,-87.18 89.34,188.22 284.33,226.9 476.03,136.9 140.75,-66.08 324.97,-187 372.01,-347.46 -2.54,-58.09 -254.05,-256.44 -276.64,-269.5 14.42,-6.74 31.08,-12.06 49.46,-16.2z"/>
   <path class="fil0" d="M25961.56 747.21c212.9,0 384.88,40.79 574.06,78.34 332.11,65.92 317.97,121.91 620.78,368.17 183.91,149.56 398.54,270.25 601.28,387.69 132.68,76.84 303.3,139.98 465.97,193.33 381.92,125.27 741.3,169.02 1135.13,47.06 196.87,-60.97 273.05,-104.96 361.74,-305.4 34.44,-180.18 64.91,-218.94 -47.34,-355.7 -219.88,-267.89 -489.45,-25.03 -403.61,187.22 42.58,105.32 157.6,111.4 302.49,113.22 -45.35,135.25 -38.82,103.94 -164.17,153.68 -245.81,97.55 -775.42,60.36 -1035.85,-72.93 -258.7,-132.4 -736.19,-438.39 -608.73,-810.83 95.48,39.2 42.45,150.99 212.79,158.76 155.49,7.11 186.41,-77.7 215.71,-164.59 -84.62,-310.35 -461.48,-219.81 -530.17,67.57 -78.49,328.34 247.95,464.12 316.24,615.14 -188.98,-17.57 -981.76,-561.47 -1024.1,-682.71 66.73,-37.79 95.46,-34.29 187.18,-44.95 12.42,-1.45 48.29,-5.37 59.66,-7.57l397.43 -109.44c286.2,-74.17 599.82,-308.81 693.15,-306.02 19.44,39.33 23.47,75.19 45.96,124.04l158.46 308.81 250.37 239.79c192.45,97.51 106.84,-1.34 131.48,-28.75l-256.65 -202.49c-77.61,-115.41 -236.31,-367.09 -256.59,-500.88 18.13,-8.66 32.93,1.75 82.32,12.15 -1.43,-89.77 9.91,-81.04 36.76,-144.01l-259.74 0c-19.51,90.52 -19.94,67.92 -95.44,109.06 -306.77,167.17 -551.83,286.85 -920.44,361.66 -355.12,72.07 -424.22,76.26 -570.57,-76.36 -92.51,-96.48 -280.17,-272.86 -337.66,-394.36l-278.39 0c92.56,203.73 387.17,417.46 416.52,526.31 -401.9,17.12 -814.61,-63.52 -1174.16,-154.19 -120.38,-30.36 -837.3,-267.85 -916.02,-372.12l-250.85 0 859.82 390.88c319.2,107.34 590.41,208.27 985.32,240.94l19.86 49.46z"/>
   <path class="fil0" d="M4650.99 1032.9c59.77,32.31 92.02,56.91 152.81,96.92 64.5,42.44 94.44,52.17 162.97,100.77 296.53,-24.35 379.14,-24.44 537.48,-210.84 244.87,-288.28 -14.39,-451.93 -54.1,-514.18 -68.22,0 -110.85,-4.78 -176.59,9.88 -46.48,10.37 -50.48,22.13 -107.47,35.32l-1.41 196.33c71.93,48.16 56.26,85.72 177.16,83.92 104.2,-1.55 98.87,-42.66 174.35,-62.23 -2.09,4.72 -3.35,11.86 -4.16,14.89 -43.65,164.65 -63.62,225.66 -273.24,318.47 -190.9,84.52 -390.32,51.87 -465.77,-69.25 51.79,-26.06 84.8,-5.84 148.57,-41.53 184.17,-103.12 40.3,-403.62 -176.16,-295.3 -158.22,79.16 -147.74,167.12 -94.43,336.83z"/>
   <path class="fil0" d="M24365.34 725.23c37.99,98.72 47.67,111.9 110.98,181.7 42.13,46.45 95.46,138.37 148.87,158.8 146.52,56.04 400.67,11.13 574.61,11.13 22.84,-82.3 161.76,-188.82 139.33,-322.13 -16.19,-96.2 -115.57,-201.62 -307.34,-156.28 -53.58,52.8 -115.16,128.46 -45.6,236.62 58.75,91.34 168.91,53.22 216.9,98.5 21.98,23.17 23.87,-17.98 -16.25,16.14 -285.78,243.03 -730.4,-2.31 -741.71,-267.96 111.88,5.49 156.01,106.52 288.07,7.86 305.5,-228.24 -398.14,-527.38 -367.86,35.62z"/>
   <path class="fil0" d="M11076.32 1362.68c-20.23,39.14 -30.22,60.12 -43.95,87.79 207.89,239.17 563.29,285.7 879.07,285.7 0,-149.42 30.13,-351.21 -21.97,-482.05 -134.37,-41.09 -190.38,-30.81 -296.49,25.75 -74.39,278.4 47.88,227.57 98.81,302.35 22.9,-31.52 -3.06,22.71 -130.71,24.47 -124.1,1.7 -265.52,-47.03 -348.21,-118.21 -74.41,-64.06 -13.69,-72.6 -136.55,-125.8z"/>
   <path class="fil0" d="M24196.61 747.21l81.25 0c111.4,-355.22 -30.4,-594.73 -256.4,-614.05 -116.38,-9.94 -163.33,50.99 -242.41,86.72l0 153.62c108.88,72.91 70.21,88.78 263.5,87.19l88.81 -120.42c-1.68,7.17 14.2,6.41 16.13,13.66 9.41,35.44 69.65,-4.76 73.33,150.71 2.4,102.12 -18.32,159.07 -24.2,242.57z"/>
   <path class="fil0" d="M25881 65.93l-798.67 0 -43.55 142.12c310.39,133 631.72,10.48 842.22,-142.12z"/>
   <path class="fil0" d="M2904.73 0l-848.25 0c150.46,204.91 666.36,212.33 848.25,0z"/>
   <path class="fil0" d="M9738.68 21.97l-639.09 0 15.28 176.37c208.32,51.67 504.8,-43.54 623.81,-176.37z"/>
   <path class="fil0" d="M22196.61 1618.31c-91.91,23.14 -80.02,56.18 -158.5,52.58l-9.51 -88.56c-114.58,0 -255.66,20.57 -315.48,109.89 27.11,36.99 266.04,187.54 307.68,175.81 34.29,-9.66 92.91,-131.97 136.14,-194.71l39.68 -55z"/>
   <path class="fil0" d="M29510.47 835.11c-5.5,-291.42 -247.42,-298.01 -300.24,-191.16 -114.37,231.36 176.71,271.11 300.24,191.16z"/>
   <path class="fil0" d="M20865.12 43.96l-536.66 0c87.79,29.04 199.64,75.78 287.73,105.91 122.37,41.84 224.04,-16.96 248.93,-105.91z"/>
  </g>
 </g>
</svg>
